#N canvas 1033 307 450 611 12;
#X msg 67 60 connect 10.0.0.10 9292;
#X msg 254 60 disconnect, f 11;
#X floatatom 81 325 5 0 0 0 - - -;
#X obj 81 412 list prepend send;
#X obj 81 436 list trim;
#X obj 69 498 netsend -u -b;
#X obj 81 389 oscformat -f ii /motor/rotate;
#X msg 81 351 0 \$1;
#X obj 81 129 vsl 15 128 0 127 0 0 empty empty empty 0 -9 0 10 -262144
-1 -1 6300 1;
#X obj 81 269 - 63;
#X obj 81 297 * 20;
#X msg 81 103 63;
#X floatatom 141 325 5 0 0 0 - - -;
#X obj 141 129 vsl 15 128 0 127 0 0 empty empty empty 0 -9 0 10 -262144
-1 -1 6300 1;
#X obj 141 269 - 63;
#X obj 141 297 * 20;
#X msg 141 103 63;
#X msg 141 351 1 \$1;
#X connect 0 0 5 0;
#X connect 1 0 5 0;
#X connect 2 0 7 0;
#X connect 3 0 4 0;
#X connect 4 0 5 0;
#X connect 6 0 3 0;
#X connect 7 0 6 0;
#X connect 8 0 9 0;
#X connect 9 0 10 0;
#X connect 10 0 2 0;
#X connect 11 0 8 0;
#X connect 12 0 17 0;
#X connect 13 0 14 0;
#X connect 14 0 15 0;
#X connect 15 0 12 0;
#X connect 16 0 13 0;
#X connect 17 0 6 0;
